<?xml version="1.0" encoding="UTF-8" standalone="no"?>
<svg
   xmlns:dc="http://purl.org/dc/elements/1.1/"
   xmlns:cc="http://creativecommons.org/ns#"
   xmlns:rdf="http://www.w3.org/1999/02/22-rdf-syntax-ns#"
   xmlns:svg="http://www.w3.org/2000/svg"
   xmlns="http://www.w3.org/2000/svg"
   xmlns:sodipodi="http://sodipodi.sourceforge.net/DTD/sodipodi-0.dtd"
   xmlns:inkscape="http://www.inkscape.org/namespaces/inkscape"
   width="32"
   height="32"
   version="1.1"
   id="svg30"
   sodipodi:docname="btc.svg"
   inkscape:version="1.0.2-2 (e86c870879, 2021-01-15)">
  <metadata
     id="metadata36">
    <rdf:RDF>
      <cc:Work
         rdf:about="">
        <dc:format>image/svg+xml</dc:format>
        <dc:type
           rdf:resource="http://purl.org/dc/dcmitype/StillImage" />
      </cc:Work>
    </rdf:RDF>
  </metadata>
  <defs
     id="defs34" />
  <sodipodi:namedview
     pagecolor="#ffffff"
     bordercolor="#666666"
     borderopacity="1"
     objecttolerance="10"
     gridtolerance="10"
     guidetolerance="10"
     inkscape:pageopacity="0"
     inkscape:pageshadow="2"
     inkscape:window-width="1920"
     inkscape:window-height="1017"
     id="namedview32"
     showgrid="false"
     inkscape:zoom="26.5625"
     inkscape:cx="16"
     inkscape:cy="14.059729"
     inkscape:window-x="-8"
     inkscape:window-y="-8"
     inkscape:window-maximized="1"
     inkscape:current-layer="g28" />
  <g
     fill="none"
     fill-rule="evenodd"
     id="g28">
    <circle
       cx="16"
       cy="16"
       r="16"
       fill="#F7931A"
       id="circle24" />
    <path
       style="fill:#008000;fill-opacity:1;stroke-width:0.0376471"
       d="M 15.284706,31.956195 C 14.22777,31.916118 13.280666,31.779938 12.178824,31.509614 7.5573064,30.375778 3.6610015,27.208728 1.5968649,22.908235 0.15485867,19.90391 -0.31143236,16.508966 0.26539066,13.214118 1.1455156,8.1867893 4.4688489,3.8127819 9.0917647,1.5972788 11.488688,0.44856836 13.984752,-0.06031436 16.707189,0.04469123 c 5.432309,0.20952658 10.4566,3.28321377 13.188473,8.06824997 1.239346,2.1707888 1.970064,4.7242168 2.060436,7.1999998 0.09952,2.726518 -0.408395,5.210662 -1.552963,7.595294 -1.964497,4.092901 -5.590552,7.167951 -9.941959,8.431207 -1.70713,0.495597 -3.316077,0.687296 -5.17647,0.616753 z"
       id="path46" />
    <text
       xml:space="preserve"
       style="font-style:normal;font-weight:normal;font-size:30.0862px;line-height:1.25;font-family:sans-serif;fill:#ffffff;fill-opacity:1;stroke:none;stroke-width:0.752155"
       x="5.2735686"
       y="25.986244"
       id="text50"
       transform="scale(0.97082929,1.0300472)"><tspan
         sodipodi:role="line"
         id="tspan48"
         x="5.2735686"
         y="25.986244"
         style="fill:#ffffff;stroke-width:0.752155">N</tspan></text>
  </g>
</svg>
